<?xml version="1.0" standalone="no"?>
<!DOCTYPE svg PUBLIC "-//W3C//DTD SVG 20010904//EN"
 "http://www.w3.org/TR/2001/REC-SVG-20010904/DTD/svg10.dtd">
<svg version="1.0" xmlns="http://www.w3.org/2000/svg"
 width="400.000000pt" height="400.000000pt" viewBox="0 0 400.000000 400.000000"
 preserveAspectRatio="xMidYMid meet">
<metadata>
Created by potrace 1.11, written by Peter Selinger 2001-2013
</metadata>
<g transform="translate(0.000000,400.000000) scale(0.100000,-0.100000)"
fill="#000000" stroke="none">
<path d="M475 3280 c-104 -21 -226 -89 -306 -171 -57 -59 -134 -208 -149 -288
-13 -72 -13 -1570 0 -1642 5 -30 31 -96 56 -147 69 -141 176 -237 330 -295
l59 -22 1540 0 1540 0 65 25 c185 73 332 239 369 418 15 74 15 1610 0 1684
-42 201 -223 384 -430 433 -56 13 -258 15 -1549 14 -817 -1 -1503 -5 -1525 -9z
m3068 -75 c83 -22 153 -60 215 -119 71 -66 115 -136 141 -222 21 -68 21 -80
19 -884 -3 -806 -3 -816 -24 -872 -58 -150 -193 -272 -349 -313 -52 -13 -243
-15 -1540 -15 -1618 0 -1529 -3 -1652 57 -65 32 -159 121 -198 187 -15 26 -38
78 -51 117 l-24 71 0 788 0 788 24 71 c32 95 67 151 131 215 60 59 146 109
226 130 82 22 2997 23 3082 1z"/>
<path d="M1895 2731 c-74 -12 -162 -39 -220 -68 -83 -42 -195 -134 -257 -211
-108 -137 -158 -280 -158 -456 0 -217 73 -389 232 -543 80 -78 156 -125 255
-160 72 -26 90 -28 233 -28 169 0 205 8 325 67 60 30 185 124 185 140 0 4 5 8
10 8 6 0 10 -40 10 -100 l0 -100 121 0 120 0 -3 423 c-5 472 -5 474 -78 624
-64 130 -206 270 -346 341 -104 53 -307 82 -429 63z m240 -256 c85 -23 151
-62 220 -130 62 -62 115 -149 135 -223 6 -24 11 -81 11 -128 0 -442 -537 -659
-851 -344 -153 152 -191 370 -98 559 37 77 139 183 214 223 105 57 251 73 369
43z"/>
</g>
</svg>
